<svg xmlns="http://www.w3.org/2000/svg" version="1.1" xmlns:xlink="http://www.w3.org/1999/xlink" xmlns:svgjs="http://svgjs.dev/svgjs" width="1000" height="623" viewBox="0 0 1000 623"><g transform="matrix(1,0,0,1,-0.6060606060606233,0.2522267206477409)"><svg viewBox="0 0 396 247" data-background-color="#636365" preserveAspectRatio="xMidYMid meet" height="623" width="1000" xmlns="http://www.w3.org/2000/svg" xmlns:xlink="http://www.w3.org/1999/xlink"><g id="tight-bounds" transform="matrix(1,0,0,1,0.2400000000000091,-0.09999999999999432)"><svg viewBox="0 0 395.52 247.2" height="247.2" width="395.52"><g><svg></svg></g><g><svg viewBox="0 0 395.52 247.2" height="247.2" width="395.52"><g transform="matrix(1,0,0,1,75.54432,93.52730220418448)"><svg viewBox="0 0 244.43135999999998 60.14539559163104" height="60.14539559163104" width="244.43135999999998"><g><svg viewBox="0 0 244.43135999999998 60.14539559163104" height="60.14539559163104" width="244.43135999999998"><g><svg viewBox="0 0 244.43135999999998 60.14539559163104" height="60.14539559163104" width="244.43135999999998"><g><svg viewBox="0 0 244.43135999999998 60.14539559163104" height="60.14539559163104" width="244.43135999999998"><g id="textblocktransform"><svg viewBox="0 0 244.43135999999998 60.14539559163104" height="60.14539559163104" width="244.43135999999998" id="textblock"><g><svg viewBox="0 0 244.43135999999998 32.43955241944292" height="32.43955241944292" width="244.43135999999998"><g transform="matrix(1,0,0,1,0,0)"><svg width="244.43135999999998" viewBox="0.9 -35.9 271.27000000000004 36.449999999999996" height="32.43955241944292" data-palette-color="#d2d6dc"><g class="undefined-text-0" data-fill-palette-color="primary" id="text-0"><path d="M23.15-33.7L23.15-30.15 14.05-30.15 14.05 0 10 0 10-30.15 0.9-30.15 0.9-33.7 23.15-33.7ZM46.25-5L46.25-1.3Q43.3 0.25 39.05 0.25L39.05 0.25Q33.3 0.25 29.77-3.28 26.25-6.8 26.25-12.6L26.25-12.6Q26.25-18.65 29.4-22.15 32.55-25.65 37.5-25.65L37.5-25.65Q42.25-25.65 45.05-22.6 47.85-19.55 47.85-13.95L47.85-13.95Q47.85-12.35 47.6-11L47.6-11 30.3-11Q30.75-7.25 33.15-5.25 35.55-3.25 39.45-3.25L39.45-3.25Q43.7-3.25 46.25-5L46.25-5ZM37.5-22.2L37.5-22.2Q34.65-22.2 32.65-20.15 30.65-18.1 30.3-14.3L30.3-14.3 43.9-14.3 43.9-15.3Q43.9-18.45 42.2-20.33 40.5-22.2 37.5-22.2ZM71.3-4.65L71.3-0.9Q68.9 0.55 65.4 0.55L65.4 0.55Q59.4 0.55 55.87-3.28 52.35-7.1 52.35-12.6L52.35-12.6Q52.35-18 55.87-21.9 59.4-25.8 65.5-25.8L65.5-25.8Q68.75-25.8 71.3-24.4L71.3-24.4 71.3-20.65Q69-22.2 65.9-22.2L65.9-22.2Q61.6-22.2 59.02-19.43 56.45-16.65 56.45-12.55L56.45-12.55Q56.5-8.45 58.95-5.73 61.4-3 65.9-3L65.9-3Q68.8-3 71.3-4.65L71.3-4.65ZM97.39-17.35L97.39 0 93.44 0 93.44-16.4Q93.44-19.15 92.02-20.65 90.59-22.15 88.29-22.15L88.29-22.15Q85.49-22.15 83.39-20 81.29-17.85 81.29-13.85L81.29-13.85 81.29 0 77.39 0 77.39-35.35 81.29-35.35 81.29-20.95Q83.54-25.7 89.29-25.7L89.29-25.7Q92.94-25.7 95.17-23.45 97.39-21.2 97.39-17.35L97.39-17.35Z" fill="#d2d6dc" data-fill-palette-color="primary"></path><path d="M120.74-8.95L120.74-8.95Q120.74-4.5 117.69-2.08 114.64 0.35 109.84 0.35L109.84 0.35Q104.54 0.35 100.84-1.8L100.84-1.8 100.84-6.15Q104.49-3.4 109.74-3.4L109.74-3.4Q112.89-3.4 114.69-4.8 116.49-6.2 116.49-8.85L116.49-8.85Q116.49-9.95 116.07-10.83 115.64-11.7 114.67-12.43 113.69-13.15 112.82-13.63 111.94-14.1 110.44-14.8L110.44-14.8Q110.14-14.95 109.54-15.2L109.54-15.2Q107.39-16.15 106.27-16.75 105.14-17.35 103.62-18.53 102.09-19.7 101.39-21.25 100.69-22.8 100.69-24.85L100.69-24.85Q100.69-29.15 103.77-31.58 106.84-34 111.49-34L111.49-34Q115.84-34 118.89-32.45L118.89-32.45 118.89-28.2Q115.84-30.2 111.59-30.2L111.59-30.2Q108.54-30.2 106.74-28.78 104.94-27.35 104.94-25.05L104.94-25.05Q104.94-23.85 105.42-22.9 105.89-21.95 107.09-21.13 108.29-20.3 109.14-19.88 109.99-19.45 111.79-18.65L111.79-18.65Q113.49-17.9 114.39-17.48 115.29-17.05 116.72-16.13 118.14-15.2 118.87-14.33 119.59-13.45 120.17-12.03 120.74-10.6 120.74-8.95ZM149.54-12.6L149.54-12.6Q149.54-6.95 146.34-3.25 143.14 0.45 137.54 0.45L137.54 0.45Q132.09 0.45 128.91-3.23 125.74-6.9 125.74-12.5L125.74-12.5Q125.74-18.15 129.01-21.93 132.29-25.7 137.54-25.7L137.54-25.7Q143.29-25.7 146.41-22 149.54-18.3 149.54-12.6ZM129.84-12.55L129.84-12.55Q129.84-8.6 131.94-5.83 134.04-3.05 137.54-3.05L137.54-3.05Q141.34-3.05 143.39-5.78 145.44-8.5 145.44-12.55L145.44-12.55Q145.44-16.75 143.49-19.48 141.54-22.2 137.54-22.2L137.54-22.2Q133.94-22.2 131.89-19.4 129.84-16.6 129.84-12.55ZM159.48-35.35L159.48 0 155.54 0 155.54-35.35 159.48-35.35ZM186.68-25.35L186.68 0 182.73 0 182.73-4.4Q180.73 0.3 174.78 0.3L174.78 0.3Q171.03 0.3 168.86-1.93 166.68-4.15 166.68-7.9L166.68-7.9 166.68-25.35 170.63-25.35 170.63-8.9Q170.63-6.15 172.03-4.7 173.43-3.25 175.83-3.25L175.83-3.25Q178.98-3.25 180.86-5.45 182.73-7.65 182.73-11.4L182.73-11.4 182.73-25.35 186.68-25.35ZM206.68-4.4L206.68-0.65Q205.03 0.25 202.98 0.25L202.98 0.25Q195.48 0.25 195.48-7.4L195.48-7.4 195.48-22.15 191.43-22.15 191.43-25.35 195.48-25.35 195.48-31.65 199.43-31.65 199.43-25.35 206.43-25.35 206.43-22.15 199.43-22.15 199.43-7.3Q199.43-3.25 203.23-3.25L203.23-3.25Q205.18-3.25 206.68-4.4L206.68-4.4ZM216.58-25.35L216.58 0 212.63 0 212.63-25.35 216.58-25.35ZM216.43-35.15Q217.18-34.4 217.18-33.3 217.18-32.2 216.43-31.48 215.68-30.75 214.58-30.75 213.48-30.75 212.75-31.48 212.03-32.2 212.03-33.3 212.03-34.4 212.75-35.15 213.48-35.9 214.58-35.9 215.68-35.9 216.43-35.15ZM246.38-12.6L246.38-12.6Q246.38-6.95 243.18-3.25 239.98 0.45 234.38 0.45L234.38 0.45Q228.93 0.45 225.75-3.23 222.58-6.9 222.58-12.5L222.58-12.5Q222.58-18.15 225.85-21.93 229.13-25.7 234.38-25.7L234.38-25.7Q240.13-25.7 243.25-22 246.38-18.3 246.38-12.6ZM226.68-12.55L226.68-12.55Q226.68-8.6 228.78-5.83 230.88-3.05 234.38-3.05L234.38-3.05Q238.18-3.05 240.23-5.78 242.28-8.5 242.28-12.55L242.28-12.55Q242.28-16.75 240.33-19.48 238.38-22.2 234.38-22.2L234.38-22.2Q230.78-22.2 228.73-19.4 226.68-16.6 226.68-12.55ZM272.17-17.45L272.17 0 268.22 0 268.22-16.4Q268.22-19.2 266.8-20.68 265.37-22.15 263.07-22.15L263.07-22.15Q260.22-22.15 258.15-19.95 256.07-17.75 256.07-13.85L256.07-13.85 256.07 0 252.17 0 252.17-25.35 256.07-25.35 256.07-20.95Q258.32-25.7 264.07-25.7L264.07-25.7Q267.77-25.7 269.97-23.45 272.17-21.2 272.17-17.45L272.17-17.45Z" fill="#97978d" data-fill-palette-color="secondary"></path></g></svg></g></svg></g><g transform="matrix(1,0,0,1,0,40.09775219641533)"><svg viewBox="0 0 244.43135999999998 20.047643395215722" height="20.047643395215722" width="244.43135999999998"><g transform="matrix(1,0,0,1,0,0)"><svg width="244.43135999999998" viewBox="5.25 -36.38 556.9686904524087 45.660000000000004" height="20.047643395215722" data-palette-color="#97978d"><g class="undefined-text-1" data-fill-palette-color="secondary" id="text-1"><path d="M35.02-17.7L35.02-17.7Q35.02-13.6 33.8-10.33 32.58-7.05 30.35-4.75 28.13-2.45 25.03-1.23 21.93 0 18.15 0L18.15 0 5.25 0 5.25-35.38 18.15-35.38Q21.93-35.38 25.03-34.15 28.13-32.93 30.35-30.63 32.58-28.33 33.8-25.05 35.02-21.78 35.02-17.7ZM32.38-17.7L32.38-17.7Q32.38-21.4 31.35-24.3 30.33-27.2 28.46-29.2 26.6-31.2 23.98-32.25 21.35-33.3 18.15-33.3L18.15-33.3 7.83-33.3 7.83-2.08 18.15-2.08Q21.35-2.08 23.98-3.13 26.6-4.17 28.46-6.18 30.33-8.18 31.35-11.08 32.38-13.98 32.38-17.7ZM52.77-24.88L55.14-24.88 55.14 0 52.77 0 52.77-24.88ZM56.19-33.45L56.19-33.45Q56.19-33 56.01-32.61 55.82-32.23 55.52-31.93 55.22-31.63 54.82-31.45 54.42-31.28 53.97-31.28L53.97-31.28Q53.52-31.28 53.12-31.45 52.72-31.63 52.42-31.93 52.12-32.23 51.94-32.61 51.77-33 51.77-33.45L51.77-33.45Q51.77-33.9 51.94-34.31 52.12-34.73 52.42-35.02 52.72-35.33 53.12-35.5 53.52-35.68 53.97-35.68L53.97-35.68Q54.42-35.68 54.82-35.5 55.22-35.33 55.52-35.02 55.82-34.73 56.01-34.31 56.19-33.9 56.19-33.45ZM82.16-25.3L82.16-25.3Q83.79-25.3 85.17-24.9 86.56-24.5 87.66-23.78L87.66-23.78 94.04-23.78 94.04-22.95Q94.04-22.33 93.34-22.28L93.34-22.28 89.56-22Q90.26-21.05 90.64-19.86 91.01-18.68 91.01-17.32L91.01-17.32Q91.01-15.53 90.36-14.06 89.71-12.6 88.55-11.56 87.39-10.53 85.76-9.95 84.14-9.38 82.16-9.38L82.16-9.38Q80.01-9.38 78.26-10.03L78.26-10.03Q77.21-9.43 76.61-8.6 76.01-7.78 76.01-7L76.01-7Q76.01-5.93 76.76-5.35 77.51-4.78 78.75-4.51 79.99-4.25 81.57-4.17 83.16-4.1 84.8-4.01 86.44-3.93 88.02-3.7 89.61-3.48 90.85-2.91 92.09-2.35 92.84-1.34 93.59-0.33 93.59 1.35L93.59 1.35Q93.59 2.9 92.81 4.33 92.04 5.75 90.57 6.85 89.11 7.95 87.04 8.61 84.96 9.28 82.39 9.28L82.39 9.28Q79.76 9.28 77.79 8.74 75.81 8.2 74.47 7.29 73.14 6.38 72.46 5.18 71.79 3.98 71.79 2.63L71.79 2.63Q71.79 0.65 73.09-0.78 74.39-2.2 76.66-2.98L76.66-2.98Q75.41-3.4 74.67-4.2 73.94-5 73.94-6.43L73.94-6.43Q73.94-6.95 74.14-7.53 74.34-8.1 74.74-8.66 75.14-9.22 75.7-9.73 76.26-10.23 77.01-10.63L77.01-10.63Q75.24-11.65 74.25-13.35 73.26-15.05 73.26-17.32L73.26-17.32Q73.26-19.13 73.9-20.59 74.54-22.05 75.7-23.1 76.86-24.15 78.51-24.73 80.16-25.3 82.16-25.3ZM91.39 1.68L91.39 1.68Q91.39 0.5 90.77-0.21 90.16-0.93 89.14-1.33 88.11-1.73 86.77-1.89 85.44-2.05 83.97-2.13 82.51-2.2 81.04-2.27 79.56-2.35 78.29-2.58L78.29-2.58Q77.34-2.2 76.52-1.71 75.71-1.23 75.14-0.61 74.56 0 74.24 0.74 73.91 1.48 73.91 2.35L73.91 2.35Q73.91 3.45 74.47 4.39 75.04 5.33 76.12 6.01 77.21 6.7 78.79 7.1 80.36 7.5 82.41 7.5L82.41 7.5Q84.31 7.5 85.95 7.08 87.59 6.65 88.8 5.88 90.01 5.1 90.7 4.03 91.39 2.95 91.39 1.68ZM82.16-11L82.16-11Q83.76-11 85.01-11.46 86.26-11.93 87.11-12.75 87.96-13.58 88.4-14.73 88.84-15.88 88.84-17.28L88.84-17.28Q88.84-18.68 88.39-19.84 87.94-21 87.07-21.83 86.21-22.65 84.97-23.1 83.74-23.55 82.16-23.55L82.16-23.55Q80.59-23.55 79.34-23.1 78.09-22.65 77.22-21.83 76.36-21 75.91-19.84 75.46-18.68 75.46-17.28L75.46-17.28Q75.46-15.88 75.91-14.73 76.36-13.58 77.22-12.75 78.09-11.93 79.34-11.46 80.59-11 82.16-11ZM109.9-24.88L112.28-24.88 112.28 0 109.9 0 109.9-24.88ZM113.33-33.45L113.33-33.45Q113.33-33 113.14-32.61 112.95-32.23 112.65-31.93 112.35-31.63 111.95-31.45 111.55-31.28 111.1-31.28L111.1-31.28Q110.65-31.28 110.25-31.45 109.85-31.63 109.55-31.93 109.25-32.23 109.08-32.61 108.9-33 108.9-33.45L108.9-33.45Q108.9-33.9 109.08-34.31 109.25-34.73 109.55-35.02 109.85-35.33 110.25-35.5 110.65-35.68 111.1-35.68L111.1-35.68Q111.55-35.68 111.95-35.5 112.35-35.33 112.65-35.02 112.95-34.73 113.14-34.31 113.33-33.9 113.33-33.45ZM137.9 0.4L137.9 0.4Q135.37 0.4 133.96-1 132.55-2.4 132.55-5.33L132.55-5.33 132.55-22.33 128.97-22.33Q128.7-22.33 128.52-22.48 128.35-22.63 128.35-22.9L128.35-22.9 128.35-23.83 132.6-24.13 133.2-33.02Q133.22-33.25 133.38-33.43 133.55-33.6 133.82-33.6L133.82-33.6 134.95-33.6 134.95-24.1 142.77-24.1 142.77-22.33 134.95-22.33 134.95-5.45Q134.95-4.42 135.21-3.69 135.47-2.95 135.93-2.48 136.4-2 137.02-1.78 137.65-1.55 138.37-1.55L138.37-1.55Q139.27-1.55 139.92-1.81 140.57-2.08 141.05-2.39 141.52-2.7 141.82-2.96 142.12-3.23 142.3-3.23L142.3-3.23Q142.5-3.23 142.7-2.98L142.7-2.98 143.35-1.93Q142.4-0.88 140.93-0.24 139.47 0.4 137.9 0.4ZM175.76 0L174.81 0Q174.06 0 173.89-0.7L173.89-0.7 173.54-3.88Q172.51-2.88 171.5-2.08 170.49-1.28 169.39-0.73 168.29-0.18 167.01 0.11 165.74 0.4 164.21 0.4L164.21 0.4Q162.94 0.4 161.74 0.03 160.54-0.35 159.61-1.13 158.69-1.9 158.13-3.11 157.56-4.33 157.56-6.03L157.56-6.03Q157.56-7.6 158.46-8.95 159.36-10.3 161.28-11.3 163.19-12.3 166.2-12.9 169.21-13.5 173.44-13.6L173.44-13.6 173.44-16.2Q173.44-19.65 171.95-21.51 170.46-23.38 167.54-23.38L167.54-23.38Q165.74-23.38 164.48-22.88 163.21-22.38 162.34-21.78 161.46-21.18 160.91-20.68 160.36-20.18 159.99-20.18L159.99-20.18Q159.49-20.18 159.24-20.63L159.24-20.63 158.81-21.35Q160.76-23.3 162.91-24.3 165.06-25.3 167.79-25.3L167.79-25.3Q169.79-25.3 171.29-24.66 172.79-24.03 173.78-22.84 174.76-21.65 175.26-19.96 175.76-18.28 175.76-16.2L175.76-16.2 175.76 0ZM164.81-1.33L164.81-1.33Q166.26-1.33 167.48-1.64 168.69-1.95 169.73-2.51 170.76-3.08 171.66-3.85 172.56-4.63 173.44-5.53L173.44-5.53 173.44-12Q169.89-11.9 167.33-11.46 164.76-11.03 163.1-10.28 161.44-9.53 160.65-8.49 159.86-7.45 159.86-6.13L159.86-6.13Q159.86-4.88 160.28-3.96 160.69-3.05 161.36-2.46 162.04-1.88 162.94-1.6 163.84-1.33 164.81-1.33ZM193.98-36.38L196.36-36.38 196.36 0 193.98 0 193.98-36.38Z" fill="#d2d6dc" data-fill-palette-color="primary"></path><path d="M240.859-35.38L255.339 0 253.359 0Q253.009 0 252.789-0.19 252.559-0.38 252.439-0.68L252.439-0.68 248.259-10.95 230.889-10.95 226.739-0.68Q226.639-0.4 226.389-0.2 226.139 0 225.789 0L225.789 0 223.839 0 238.309-35.38 240.859-35.38ZM238.889-30.7L231.659-12.85 247.509-12.85 240.279-30.73Q240.109-31.15 239.939-31.69 239.759-32.23 239.589-32.83L239.589-32.83Q239.409-32.23 239.239-31.69 239.059-31.15 238.889-30.7L238.889-30.7ZM269.129-24.88L271.529-24.88 271.529-8.97Q271.529-5.48 273.129-3.49 274.729-1.5 277.999-1.5L277.999-1.5Q280.429-1.5 282.529-2.74 284.629-3.98 286.299-6.18L286.299-6.18 286.299-24.88 288.699-24.88 288.699 0 287.379 0Q286.679 0 286.649-0.65L286.649-0.65 286.429-4.35Q284.699-2.2 282.439-0.9 280.179 0.4 277.399 0.4L277.399 0.4Q275.329 0.4 273.779-0.25 272.229-0.9 271.199-2.13 270.179-3.35 269.649-5.08 269.129-6.8 269.129-8.97L269.129-8.97 269.129-24.88ZM313.619 0.4L313.619 0.4Q311.099 0.4 309.679-1 308.269-2.4 308.269-5.33L308.269-5.33 308.269-22.33 304.699-22.33Q304.419-22.33 304.249-22.48 304.069-22.63 304.069-22.9L304.069-22.9 304.069-23.83 308.319-24.13 308.919-33.02Q308.949-33.25 309.109-33.43 309.269-33.6 309.549-33.6L309.549-33.6 310.669-33.6 310.669-24.1 318.499-24.1 318.499-22.33 310.669-22.33 310.669-5.45Q310.669-4.42 310.929-3.69 311.199-2.95 311.659-2.48 312.119-2 312.749-1.78 313.369-1.55 314.099-1.55L314.099-1.55Q314.999-1.55 315.649-1.81 316.299-2.08 316.769-2.39 317.249-2.7 317.549-2.96 317.849-3.23 318.019-3.23L318.019-3.23Q318.219-3.23 318.419-2.98L318.419-2.98 319.069-1.93Q318.119-0.88 316.659-0.24 315.199 0.4 313.619 0.4ZM344.139-25.28L344.139-25.28Q346.809-25.28 348.929-24.36 351.039-23.45 352.489-21.78 353.939-20.1 354.699-17.74 355.459-15.38 355.459-12.45L355.459-12.45Q355.459-9.53 354.699-7.18 353.939-4.83 352.489-3.15 351.039-1.48 348.929-0.58 346.809 0.33 344.139 0.33L344.139 0.33Q341.459 0.33 339.349-0.58 337.239-1.48 335.779-3.15 334.309-4.83 333.549-7.18 332.789-9.53 332.789-12.45L332.789-12.45Q332.789-15.38 333.549-17.74 334.309-20.1 335.779-21.78 337.239-23.45 339.349-24.36 341.459-25.28 344.139-25.28ZM344.139-1.55L344.139-1.55Q346.359-1.55 348.029-2.31 349.689-3.08 350.799-4.5 351.909-5.93 352.459-7.94 353.009-9.95 353.009-12.45L353.009-12.45Q353.009-14.93 352.459-16.95 351.909-18.98 350.799-20.41 349.689-21.85 348.029-22.63 346.359-23.4 344.139-23.4L344.139-23.4Q341.909-23.4 340.249-22.63 338.589-21.85 337.479-20.41 336.359-18.98 335.799-16.95 335.239-14.93 335.239-12.45L335.239-12.45Q335.239-9.95 335.799-7.94 336.359-5.93 337.479-4.5 338.589-3.08 340.249-2.31 341.909-1.55 344.139-1.55ZM374.109 0L371.729 0 371.729-24.88 373.029-24.88Q373.679-24.88 373.779-24.25L373.779-24.25 374.009-20.65Q374.729-21.68 375.559-22.53 376.379-23.38 377.319-23.99 378.259-24.6 379.319-24.94 380.379-25.28 381.559-25.28L381.559-25.28Q384.279-25.28 385.909-23.69 387.529-22.1 388.109-19.28L388.109-19.28Q388.559-20.83 389.369-21.95 390.179-23.08 391.229-23.81 392.279-24.55 393.519-24.91 394.759-25.28 396.059-25.28L396.059-25.28Q397.909-25.28 399.379-24.66 400.859-24.05 401.889-22.85 402.929-21.65 403.479-19.9 404.029-18.15 404.029-15.9L404.029-15.9 404.029 0 401.629 0 401.629-15.9Q401.629-19.55 400.059-21.46 398.479-23.38 395.559-23.38L395.559-23.38Q394.259-23.38 393.069-22.9 391.879-22.43 390.969-21.49 390.059-20.55 389.519-19.15 388.979-17.75 388.979-15.9L388.979-15.9 388.979 0 386.609 0 386.609-15.9Q386.609-19.53 385.159-21.45 383.709-23.38 380.929-23.38L380.929-23.38Q378.909-23.38 377.179-22.16 375.459-20.95 374.109-18.8L374.109-18.8 374.109 0ZM438.349 0L437.399 0Q436.649 0 436.469-0.7L436.469-0.7 436.119-3.88Q435.099-2.88 434.089-2.08 433.069-1.28 431.969-0.73 430.869-0.18 429.599 0.11 428.319 0.4 426.799 0.4L426.799 0.4Q425.519 0.4 424.319 0.03 423.119-0.35 422.199-1.13 421.269-1.9 420.709-3.11 420.149-4.33 420.149-6.03L420.149-6.03Q420.149-7.6 421.049-8.95 421.949-10.3 423.859-11.3 425.769-12.3 428.789-12.9 431.799-13.5 436.019-13.6L436.019-13.6 436.019-16.2Q436.019-19.65 434.539-21.51 433.049-23.38 430.119-23.38L430.119-23.38Q428.319-23.38 427.059-22.88 425.799-22.38 424.919-21.78 424.049-21.18 423.499-20.68 422.949-20.18 422.569-20.18L422.569-20.18Q422.069-20.18 421.819-20.63L421.819-20.63 421.399-21.35Q423.349-23.3 425.499-24.3 427.649-25.3 430.369-25.3L430.369-25.3Q432.369-25.3 433.869-24.66 435.369-24.03 436.359-22.84 437.349-21.65 437.849-19.96 438.349-18.28 438.349-16.2L438.349-16.2 438.349 0ZM427.399-1.33L427.399-1.33Q428.849-1.33 430.059-1.64 431.269-1.95 432.309-2.51 433.349-3.08 434.249-3.85 435.149-4.63 436.019-5.53L436.019-5.53 436.019-12Q432.469-11.9 429.909-11.46 427.349-11.03 425.689-10.28 424.019-9.53 423.239-8.49 422.449-7.45 422.449-6.13L422.449-6.13Q422.449-4.88 422.859-3.96 423.269-3.05 423.949-2.46 424.619-1.88 425.519-1.6 426.419-1.33 427.399-1.33ZM462.669 0.4L462.669 0.4Q460.139 0.4 458.729-1 457.319-2.4 457.319-5.33L457.319-5.33 457.319-22.33 453.739-22.33Q453.469-22.33 453.289-22.48 453.119-22.63 453.119-22.9L453.119-22.9 453.119-23.83 457.369-24.13 457.969-33.02Q457.989-33.25 458.159-33.43 458.319-33.6 458.589-33.6L458.589-33.6 459.719-33.6 459.719-24.1 467.539-24.1 467.539-22.33 459.719-22.33 459.719-5.45Q459.719-4.42 459.979-3.69 460.239-2.95 460.709-2.48 461.169-2 461.789-1.78 462.419-1.55 463.139-1.55L463.139-1.55Q464.039-1.55 464.689-1.81 465.339-2.08 465.819-2.39 466.289-2.7 466.589-2.96 466.889-3.23 467.069-3.23L467.069-3.23Q467.269-3.23 467.469-2.98L467.469-2.98 468.119-1.93Q467.169-0.88 465.709-0.24 464.239 0.4 462.669 0.4ZM484.409-24.88L486.789-24.88 486.789 0 484.409 0 484.409-24.88ZM487.839-33.45L487.839-33.45Q487.839-33 487.649-32.61 487.459-32.23 487.159-31.93 486.859-31.63 486.459-31.45 486.059-31.28 485.609-31.28L485.609-31.28Q485.159-31.28 484.759-31.45 484.359-31.63 484.059-31.93 483.759-32.23 483.589-32.61 483.409-33 483.409-33.45L483.409-33.45Q483.409-33.9 483.589-34.31 483.759-34.73 484.059-35.02 484.359-35.33 484.759-35.5 485.159-35.68 485.609-35.68L485.609-35.68Q486.059-35.68 486.459-35.5 486.859-35.33 487.159-35.02 487.459-34.73 487.649-34.31 487.839-33.9 487.839-33.45ZM515.079-25.28L515.079-25.28Q517.749-25.28 519.869-24.36 521.979-23.45 523.429-21.78 524.879-20.1 525.639-17.74 526.399-15.38 526.399-12.45L526.399-12.45Q526.399-9.53 525.639-7.18 524.879-4.83 523.429-3.15 521.979-1.48 519.869-0.58 517.749 0.33 515.079 0.33L515.079 0.33Q512.399 0.33 510.289-0.58 508.179-1.48 506.719-3.15 505.249-4.83 504.489-7.18 503.729-9.53 503.729-12.45L503.729-12.45Q503.729-15.38 504.489-17.74 505.249-20.1 506.719-21.78 508.179-23.45 510.289-24.36 512.399-25.28 515.079-25.28ZM515.079-1.55L515.079-1.55Q517.299-1.55 518.969-2.31 520.629-3.08 521.739-4.5 522.849-5.93 523.399-7.94 523.949-9.95 523.949-12.45L523.949-12.45Q523.949-14.93 523.399-16.95 522.849-18.98 521.739-20.41 520.629-21.85 518.969-22.63 517.299-23.4 515.079-23.4L515.079-23.4Q512.849-23.4 511.189-22.63 509.529-21.85 508.419-20.41 507.299-18.98 506.739-16.95 506.179-14.93 506.179-12.45L506.179-12.45Q506.179-9.95 506.739-7.94 507.299-5.93 508.419-4.5 509.529-3.08 511.189-2.31 512.849-1.55 515.079-1.55ZM545.049 0L542.669 0 542.669-24.88 543.969-24.88Q544.619-24.88 544.719-24.25L544.719-24.25 544.949-20.5Q546.649-22.65 548.909-23.96 551.169-25.28 553.949-25.28L553.949-25.28Q555.999-25.28 557.559-24.63 559.119-23.98 560.149-22.75 561.169-21.53 561.699-19.8 562.219-18.07 562.219-15.9L562.219-15.9 562.219 0 559.849 0 559.849-15.9Q559.849-19.4 558.249-21.39 556.649-23.38 553.349-23.38L553.349-23.38Q550.899-23.38 548.799-22.11 546.699-20.85 545.049-18.65L545.049-18.65 545.049 0Z" fill="#97978d" data-fill-palette-color="secondary"></path></g></svg></g></svg></g></svg></g></svg></g></svg></g></svg></g></svg></g><g><path d="M0 123.6c0-68.262 55.338-123.6 123.6-123.6 56.506 0 104.156 37.918 118.893 89.698h-1.522c-14.694-50.962-61.679-88.235-117.371-88.235-67.455 0-122.137 54.683-122.137 122.137 0 67.455 54.683 122.137 122.137 122.137 55.691 0 102.677-37.274 117.371-88.235h1.522c-14.737 51.78-62.387 89.698-118.893 89.698-68.262 0-123.6-55.338-123.6-123.6z" fill="#d2d6dc" stroke="transparent" data-fill-palette-color="tertiary"></path></g></svg></g><defs></defs></svg><rect width="395.52" height="247.2" fill="none" stroke="none" visibility="hidden"></rect></g></svg></g></svg>